<?xml version="1.0" encoding="UTF-8"?>
<svg version="1.1" viewBox="0 0 1080 1232" width="270" height="308" xmlns="http://www.w3.org/2000/svg">
<path transform="translate(724,310)" d="m0 0h7l7 3 5 5 2 4v7l-4 8-9 11-10 17-7 16-2 9v25l2 12 109 1 12 2 8 3 9 7 7 8 7 14 1 5v281l-2 12-7 23-8 16-7 11-13 15-60 60h-2l-2 4h-2l-2 4-4 4h-2l-2 4-4 4h-2l-2 4h-2l-2 4h-2l-2 4h-2l-2 4h-2l-2 4h-2l-2 4h-2l-2 4h-2l-2 4h-2l-2 4h-2v2h-2v2h-2v2l-8 7-227 227-10 7-11 4-14 1-14-3-10-6-13-12-290-290-6-10-4-11v-16l5-14 7-9 6-7h2l2-4 12-12h2l2-4h2l2-4h2l2-4h2v-2l8-7 103-103h2l1-3 8-7 110-110 6-5 5-6 8-7 78-78 13-10 14-8 13-6 18-5 12-2 131-1-2-18v-15l2-14 7-20 11-21 7-11 11-14zm-175 151-16 4-16 7-11 8-10 9-47 47-6 5-5 5-4 5-8 7-81 81-2 1v2h-2v2h-2v2l-4 2-80 80-6 5v2l-4 2-108 108-3 8 2 5 9 10 290 290 4 2h8l9-7 360-360 7-11 7-14 4-14 1-6v-278l-4-6-4-3h-90l7 11 8 16 5 16 2 10v18l3 5 9 11 7 15 4 15 1 6v15l-6 22-8 14-9 10-9 8-12 7-18 6-5 1h-22l-15-4-16-8-10-8-8-8-8-13-5-11-3-11v-26l4-16 8-15 9-11 9-8 13-8 15-5 8-2h21l7 2h4l-3-10-8-16-10-16-8-11-2-1zm148 84-11 4-9 6-7 7-6 10-3 9v18l5 13 8 11 8 6 11 5 4 1h18l13-5 9-7 8-10 5-13 1-4v-14l-4-11-4 1-7 10-9 11-7 7-9 5-5 1-10-4-3-3-2-6 1-9 6-8 10-10 10-14 1-5-4-2z" fill="#3A7BF5"/>
<path transform="translate(403,743)" d="m0 0h10l8 6 7 6 6 7 6 5 112 112 5 8v8l-4 7-6 5-3 1h-7l-6-3-12-11-122-122-6-9v-7l5-8 5-4z" fill="#3A7BF5"/>
<path transform="translate(330,815)" d="m0 0h13l6 4 87 87 2 1v2h2v2l4 2v2l4 2v2l4 2v2l4 2 20 20 8 10 1 3v10l-4 6-4 3-4 2h-8l-9-6-132-132-4-7v-7l4-8z" fill="#3A7BF5"/>
</svg>
