<svg width="512" height="512" viewBox="0 0 512 512" fill="none" xmlns="http://www.w3.org/2000/svg">
  <defs>
    <!-- Gradient mai închis și mai premium -->
    <linearGradient id="darkGradient" x1="0%" y1="0%" x2="100%" y2="100%">
      <stop offset="0%" style="stop-color:#1e40af;stop-opacity:1" />
      <stop offset="50%" style="stop-color:#312e81;stop-opacity:1" />
      <stop offset="100%" style="stop-color:#1e1b4b;stop-opacity:1" />
    </linearGradient>
    
    <!-- Gradient pentru elementele albe - acum cu nuanțe subtile -->
    <linearGradient id="lightGradient" x1="0%" y1="0%" x2="100%" y2="100%">
      <stop offset="0%" style="stop-color:#ffffff;stop-opacity:1" />
      <stop offset="100%" style="stop-color:#e0e7ff;stop-opacity:1" />
    </linearGradient>
    
    <!-- Shadow filter pentru depth -->
    <filter id="shadow" x="-50%" y="-50%" width="200%" height="200%">
      <feGaussianBlur in="SourceAlpha" stdDeviation="3"/>
      <feOffset dx="0" dy="2" result="offsetblur"/>
      <feFlood flood-color="#000000" flood-opacity="0.2"/>
      <feComposite in2="offsetblur" operator="in"/>
      <feMerge>
        <feMergeNode/>
        <feMergeNode in="SourceGraphic"/>
      </feMerge>
    </filter>
    
    <!-- Inner shadow pentru logo -->
    <filter id="innerShadow">
      <feOffset dx="0" dy="1" />
      <feGaussianBlur stdDeviation="2" result="offset-blur"/>
      <feComposite operator="out" in="SourceGraphic" in2="offset-blur" result="inverse"/>
      <feFlood flood-color="#000000" flood-opacity="0.3" result="color"/>
      <feComposite operator="in" in="color" in2="inverse" result="shadow"/>
      <feComposite operator="over" in="shadow" in2="SourceGraphic"/>
    </filter>
  </defs>
  
  <!-- Background cu gradient mai închis și rounded corners -->
  <rect width="512" height="512" rx="64" fill="url(#darkGradient)"/>
  
  <!-- Subtle pattern overlay pentru texture -->
  <rect width="512" height="512" rx="64" fill="url(#darkGradient)" opacity="0.9"/>
  
  <!-- S-shaped lightning bolt cu proporții optimizate pentru 512x512 -->
  <g transform="scale(2.67)">
    <!-- Main S path cu filter pentru depth -->
    <path d="M48 144V120H72V96H96V72H120V48H144V72H120V96H96V120H72V144H48Z" 
          fill="url(#lightGradient)" 
          filter="url(#shadow)"/>
    
    <!-- Dot-ul de sus cu glow effect -->
    <circle cx="132" cy="60" r="12" fill="url(#lightGradient)" filter="url(#shadow)">
      <animate attributeName="opacity" values="0.8;1;0.8" dur="3s" repeatCount="indefinite"/>
    </circle>
    
    <!-- Baza cu rounded corners -->
    <path d="M60 132C60 126.477 64.4772 122 70 122H122C127.523 122 132 126.477 132 132V132C132 137.523 127.523 142 122 142H70C64.4772 142 60 137.523 60 132V132Z" 
          fill="url(#lightGradient)" 
          filter="url(#shadow)"/>
  </g>
  
  <!-- Subtle glow pentru logo -->
  <g transform="scale(2.67)" opacity="0.3">
    <path d="M48 144V120H72V96H96V72H120V48H144V72H120V96H96V120H72V144H48Z" 
          fill="white" 
          filter="url(#shadow)">
      <animate attributeName="opacity" values="0.2;0.4;0.2" dur="4s" repeatCount="indefinite"/>
    </path>
  </g>
</svg>