<?xml version="1.0" encoding="UTF-8"?>
<svg xmlns="http://www.w3.org/2000/svg" version="1.1" width="16" height="16" viewBox="0 0 16 16">
  <!-- Versiune simplificată pentru favicon mic -->
  <defs>
    <linearGradient id="miniGradient" x1="0%" y1="0%" x2="100%" y2="100%">
      <stop offset="0%" style="stop-color:#1e3a8a;stop-opacity:1" />
      <stop offset="100%" style="stop-color:#172554;stop-opacity:1" />
    </linearGradient>
  </defs>
  
  <!-- Logo simplificat pentru 16x16 -->
  <g transform="scale(0.03125)">
    <path fill="url(#miniGradient)" d="M 468.5,30.5 C 479.465,32.0923 482.965,38.0923 479,48.5C 463.319,64.0139 447.819,79.6806 432.5,95.5C 439.184,102.35 445.684,109.35 452,116.5C 457.814,128.268 459.147,140.601 456,153.5C 452.318,182.278 447.984,210.944 443,239.5C 437.367,257.126 427.7,272.126 414,284.5C 395.062,341.982 375.728,399.315 356,456.5C 343.693,473.715 327.193,479.882 306.5,475C 289.239,468.692 272.072,462.192 255,455.5C 249.486,460.714 244.319,466.214 239.5,472C 224.236,481.683 208.236,483.016 191.5,476C 140.028,425.528 88.8608,374.694 38,323.5C 31.8584,313.343 29.8584,302.343 32,290.5C 33.0722,285.617 34.7388,280.95 37,276.5C 41.8004,270.698 46.967,265.198 52.5,260C 115.833,201.333 179.167,142.667 242.5,84C 253.415,75.3775 265.749,69.7109 279.5,67C 311.084,62.1308 342.751,57.9641 374.5,54.5C 382.163,53.7763 389.163,55.6096 395.5,60C 402.636,66.1349 409.469,72.6349 416,79.5C 431.5,64 447,48.5 462.5,33C 464.611,32.1553 466.611,31.322 468.5,30.5 Z"/>
  </g>
</svg>