<svg version="1.1" xmlns="http://www.w3.org/2000/svg" width="512" height="512" viewBox="0 0 512 512">
  <g transform="translate(256, 256)">
    <!-- Simplified monochrome version for Safari -->
    <!-- Cart Body -->
    <path d="M-80 -40 Q-80 -60 -60 -60 L60 -60 Q80 -60 80 -40 L80 40 Q80 60 60 60 L-60 60 Q-80 60 -80 40 Z" fill="#000000"/>
    
    <!-- AI Neural Network -->
    <circle cx="0" cy="0" r="16" fill="#000000"/>
    <circle cx="-40" cy="-20" r="12" fill="#000000"/>
    <circle cx="40" cy="-20" r="12" fill="#000000"/>
    <circle cx="-40" cy="20" r="12" fill="#000000"/>
    <circle cx="40" cy="20" r="12" fill="#000000"/>
    
    <!-- Cart Handle -->
    <path d="M-60 -60 Q-60 -100 -20 -100 L20 -100 Q60 -100 60 -60" fill="none" stroke="#000000" stroke-width="12"/>
    
    <!-- Cart Wheels -->
    <circle cx="-50" cy="80" r="16" fill="#000000"/>
    <circle cx="50" cy="80" r="16" fill="#000000"/>
  </g>
</svg>