<svg version="1.1" id="Layer_1" xmlns:x="ns_extend;" xmlns:i="ns_ai;" xmlns:graph="ns_graphs;" xmlns="http://www.w3.org/2000/svg" xmlns:xlink="http://www.w3.org/1999/xlink" x="0px" y="0px" viewBox="0 0 43 43" style="enable-background:new 0 0 43 43;" xml:space="preserve">
 <style type="text/css">
  .st0{fill:#D31334;}
 </style>
 <metadata>
  <sfw xmlns="ns_sfw;">
   <slices>
   </slices>
   <sliceSourceBounds bottomLeftOrigin="true" height="43" width="43" x="174.5" y="-216.5">
   </sliceSourceBounds>
  </sfw>
 </metadata>
 <g>
  <path id="Combined-Shape" class="st0" d="M21.5,0C33.4,0,43,9.6,43,21.5C43,33.4,33.4,43,21.5,43C9.6,43,0,33.4,0,21.5
		C0,9.6,9.6,0,21.5,0z M32.8,32.1c-0.7,0-1.3-0.2-1.9-0.6c-3.5-2.3-2.3-5.1,0.1-9.4c1-1.8,2-3.7,2.5-5.6c0.5-2.1,0.9-5.1-0.9-7.4
		c-0.9-1.1-2.1-1.9-3.8-2.5c-1.8-0.6-4-0.9-6.8-0.9l-0.2,0l-0.7,0c-2.7,0-5,0.4-6.8,0.9c-1.7,0.6-3,1.4-3.8,2.5
		c-1.8,2.3-1.4,5.3-0.9,7.4c0.5,1.9,1.5,3.8,2.5,5.6c2.4,4.3,3.6,7.1,0.1,9.4c-0.6,0.4-1.3,0.6-1.9,0.6c-1.4,0-2.9-0.7-3.7-1.1
		l0.2,0.4c1.7,2.6,3.9,4,6.4,4c1.1,0,2.2-0.3,3.4-0.8c1.2-0.5,2.3-1.5,3.1-2.8c0.7-1.3,1-2.6,0.8-3.9c-0.3-1.1-0.8-2.6-1.5-4.3
		c-1.7-4.4-4.1-10.5-2-13.5c0.9-1.3,2.4-1.9,4.7-1.9c2.3,0,3.8,0.6,4.7,1.9c2,3-0.3,9-2,13.4c-0.7,1.7-1.2,3.2-1.5,4.3
		c-0.2,1.2,0.1,2.6,0.8,3.9c0.7,1.3,1.8,2.3,3.1,2.8c1.2,0.5,2.3,0.8,3.4,0.8c2.5,0,4.7-1.4,6.4-4l0.2-0.3
		C35.7,31.5,34.1,32.1,32.8,32.1z">
  </path>
 </g>
</svg>