<svg xmlns="http://www.w3.org/2000/svg" xml:space="preserve" viewBox="0 0 104 30"><path fill-rule="evenodd" d="M71.8 22c-1.6 1.7-3.6 2.5-5.9 2.5-2.4 0-4.4-.8-5.9-2.5-1.5-1.6-2.3-4.1-2.3-7 0-2.8.9-5.3 2.4-6.9 1.6-1.7 3.6-2.5 5.9-2.5 2.4 0 4.3.9 5.9 2.5 1.5 1.6 2.4 4.1 2.4 6.9-.1 2.9-1 5.4-2.5 7m-20.9-7v.4c-2.4-2.2-5.8-3-8-3.4-3.9-.8-6.9-1.6-6.9-4.3 0-2 1.8-3.4 5.1-3.1 3.1.2 4.4 2.1 4.7 3.9 0 .3.2.5.5.5h5.8q-1.2 2.7-1.2 6m-9.4 10.2c-2.7 0-5.6-1-6.3-4.6-.1-.4-.2-.5-.5-.5l-5.4-.1v-9.4c.7 2.8 3 4.7 8.1 5.8 3.4.8 9.2 1.3 9.2 4.8 0 2.3-1.7 4-5.1 4m-26.7-.7c-4.3 0-8.3-3.4-8.3-9.5 0-4.8 3-9.4 8.3-9.4 2.3 0 8.2.8 8.2 9.4s-6.1 9.5-8.2 9.5m65.9-11.8c1.2 1.6 3.5 2.8 7.1 3.7 3.4.8 9.2 1.3 9.2 4.8 0 2.4-1.8 4.1-5.2 4-2.7 0-5.6-1-6.3-4.6-.1-.4-.2-.5-.5-.5l-5-.1c.5-1.5.8-3.2.8-5 0-.8 0-1.5-.1-2.3M91.5 30c5.9 0 13-2.2 12.4-9.4-.6-6.4-7.2-8-10.6-8.6-3.9-.8-6.9-1.6-6.9-4.3 0-2 1.8-3.4 5.1-3.1 3.1.2 4.4 2.1 4.7 3.9.1.3.2.5.5.5h5.5c.4 0 .6-.2.5-.5-.9-6.6-6.5-8.5-11.6-8.5S79.9 1.4 79.4 7.8v.7c-.8-1.7-2-3.2-3.5-4.6-2.8-2.5-6.2-3.9-10-3.9h-.1c-1.8 0-3.6.3-5.3 1s-3.3 1.7-4.7 2.9c-1.4 1.3-2.6 2.7-3.4 4.3C51.3 1.8 45.8 0 40.8 0c-4.7 0-10.3 1.2-11.5 6.3V1.2c0-.3-.2-.5-.5-.5h-5.2c-.3 0-.5.2-.5.5v1.4c0 .2-.2.3-.3.2-1.9-1.4-4.7-2.8-8-2.8-1.8 0-3.6.3-5.2 1-1.7.6-3.2 1.6-4.7 2.9-1.6 1.5-2.9 3.2-3.7 5S0 12.8 0 15c0 2.1.4 4 1.1 5.8q1.05 2.7 3.3 4.8c1.4 1.5 3.1 2.6 4.8 3.3s3.7 1.1 5.7 1.1c3.5 0 6.2-1.5 7.9-2.9.2-.1.3-.1.3.2v1.4c0 .3.2.5.5.5h5.2c.3 0 .5-.2.5-.5v-4.8C31.8 29.7 38 30 41.1 30c5.1 0 11.1-1.6 12.2-6.7.5.8 1.2 1.6 1.9 2.3 2.8 2.8 6.5 4.3 10.6 4.4h.2c2 0 3.9-.4 5.6-1.1 1.8-.8 3.4-1.9 4.8-3.2 1-1 1.9-2.2 2.6-3.4 2 7.3 9.1 7.7 12.5 7.7" clip-rule="evenodd"/></svg>