<svg xmlns="http://www.w3.org/2000/svg" xml:space="preserve" viewBox="0 0 84.8 49.6"><path fill="#fff000" d="M67.9 36h16.9v13.6h-17l-4.2-4V40z"/><path fill="#122028" d="m15.2 10.7.3-.1c.2-.1.5-.3.8-.5s.6-.5.9-.8.5-.7.8-1.3c.2-.5.3-1.1.3-1.7 0-1.5-.7-2.9-2.1-4S12.9.6 10.5.6H0V22h11.1c2.8 0 8.7-.5 8.7-6.1 0-4.3-4.5-5.2-4.6-5.2M6.9 5.6h2.6c.5 0 .9.1 1.3.5.3.3.5.7.5 1.1s-.2.8-.5 1.1c-.4.3-.8.5-1.3.5H6.9zm4.8 10.9q-.6.6-1.5.6H6.9v-3.8h3.3q.9 0 1.5.6c.4.4.6.8.6 1.4q0 .6-.6 1.2m9 17.9.3-.1c.2-.1.5-.3.8-.5s.6-.5.9-.8.5-.7.8-1.3c.2-.5.3-1.1.3-1.7 0-1.5-.7-2.9-2.1-4s-3.3-1.7-5.7-1.7H5.5v21.4h11c2.8 0 8.7-.5 8.7-6.1.1-4.3-4.4-5.1-4.5-5.2m-8.2-5.1H15c.5 0 .9.2 1.3.5.3.3.5.7.5 1.1s-.2.8-.5 1.1-.7.5-1.3.5h-2.5zm4.7 10.9q-.6.6-1.5.6h-3.2V37h3.2q.9 0 1.5.6c.4.4.6.8.6 1.4q0 .6-.6 1.2m20.3-23.4H27.2v-3.3h8.4V8.6h-8.4V5.8h10.3V.6H20.2V22h17.3zM55.2.6v5.2h5.7V22h6.9V5.8h5.6V.6zm-7.8 15.9c-.4.3-.9.5-1.6.5s-1.4-.2-2.1-.6q-1.05-.6-1.5-.9c-.1-.1-.3-.2-.4-.3l-4.1 3.9.3.3c.2.3.6.6 1.1.9.5.4 1.1.7 1.8 1.1s1.5.7 2.6.9c1 .3 2.1.4 3.2.4 2.7 0 4.9-.7 6.5-2.1q2.4-2.1 2.4-5.1c0-1.1-.2-2.2-.7-3-.5-.9-1-1.5-1.7-2-.7-.4-1.4-.8-2.2-1.2-.7-.3-1.4-.6-2.1-.7h-.2c-.7-.2-1.3-.4-1.7-.7-.5-.3-.7-.5-.7-.9s.2-.7.5-1 .8-.4 1.4-.4c1.4 0 2.3.6 2.7 1.1L55 2.8l-.1-.1c-.2-.2-.5-.5-.9-.8q-.6-.45-1.5-.9c-.6-.3-1.3-.6-2.3-.8-1-.1-2-.2-3-.2-2.6 0-4.6.7-6.2 2q-2.4 2.1-2.4 4.8c0 1 .2 1.9.5 2.6.3.8.8 1.4 1.3 1.9q.75.75 1.8 1.2c.6.3 1.1.5 1.7.7.1 0 .2.1.3.1q1.05.3 1.8.6c.5.2 1 .4 1.3.6s.5.5.5.7c.2.6 0 1-.4 1.3M37.5 37c0 1.4-1.1 2.6-2.6 2.6-1.4 0-2.6-1.1-2.6-2.6V24.3h-6.9v12.4c0 5.1 4.1 9.3 9.3 9.3h.4c5.1 0 9.3-4.1 9.3-9.3V24.3h-6.9zm18.7-5.4-4.5-7.3h-6.9l8 13.8v7.6h6.9v-7.6l8-13.8h-6.9zM67 42.8c0 .5-.4.8-.8.8s-.8-.4-.8-.8c0-.5.4-.8.8-.8s.8.3.8.8m.9-12.3h-.5v-.2h1.2v.2h-.5V32h-.2zm1-.2h.3l.5 1.3.5-1.3h.3v1.6h-.2v-1.4l-.6 1.4h-.1l-.6-1.4v1.4h-.2v-1.6z"/></svg>