<svg xmlns="http://www.w3.org/2000/svg" xml:space="preserve" viewBox="0 0 43 43"><path fill="#d31334" d="M21.5 0C33.4 0 43 9.6 43 21.5S33.4 43 21.5 43 0 33.4 0 21.5 9.6 0 21.5 0m11.3 32.1c-.7 0-1.3-.2-1.9-.6-3.5-2.3-2.3-5.1.1-9.4 1-1.8 2-3.7 2.5-5.6.5-2.1.9-5.1-.9-7.4-.9-1.1-2.1-1.9-3.8-2.5-1.8-.6-4-.9-6.8-.9h-.9c-2.7 0-5 .4-6.8.9-1.7.6-3 1.4-3.8 2.5-1.8 2.3-1.4 5.3-.9 7.4.5 1.9 1.5 3.8 2.5 5.6 2.4 4.3 3.6 7.1.1 9.4-.6.4-1.3.6-1.9.6-1.4 0-2.9-.7-3.7-1.1l.2.4c1.7 2.6 3.9 4 6.4 4 1.1 0 2.2-.3 3.4-.8s2.3-1.5 3.1-2.8c.7-1.3 1-2.6.8-3.9-.3-1.1-.8-2.6-1.5-4.3-1.7-4.4-4.1-10.5-2-13.5.9-1.3 2.4-1.9 4.7-1.9s3.8.6 4.7 1.9c2 3-.3 9-2 13.4-.7 1.7-1.2 3.2-1.5 4.3-.2 1.2.1 2.6.8 3.9s1.8 2.3 3.1 2.8c1.2.5 2.3.8 3.4.8 2.5 0 4.7-1.4 6.4-4l.2-.3c-1.1.5-2.7 1.1-4 1.1"/></svg>