<?xml version="1.0" encoding="utf-8"?>
<!-- Generator: Adobe Illustrator 19.0.0, SVG Export Plug-In . SVG Version: 6.00 Build 0)  -->
<svg version="1.1" id="Layer_1" xmlns="http://www.w3.org/2000/svg" xmlns:xlink="http://www.w3.org/1999/xlink" x="0px" y="0px"
	 viewBox="2790 381.7 395.4 29.7" style="enable-background:new 2790 381.7 395.4 29.7;" xml:space="preserve">
<style type="text/css">
	.st0{fill:#1D1D1B;}
</style>
<title>01.NAP_LOGO_White_and_Black</title>
<desc>Created with Sketch.</desc>
<g id="Page-1">
	<g id="_x30_1.NAP_x5F_LOGO_x5F_White_x5F_and_x5F_Black">
		<g id="N" transform="translate(0.000000, 5.000000)">
			<path id="Shape" class="st0" d="M2815.1,405.9v-28.6h-4v21.8l-17-21.6l0,0c-0.1-0.1-0.1-0.1-0.2-0.2c-0.1-0.1-0.2-0.1-0.3-0.1h0
				h-3.6v28.6h3.9v-21.8l17,21.5l0,0c0.1,0.1,0.1,0.1,0.2,0.2c0.1,0.1,0.2,0.1,0.3,0.1h0L2815.1,405.9z"/>
		</g>
		<g id="E" transform="translate(301.000000, 5.000000)">
			<polygon id="Shape_1_" class="st0" points="2525.2,405.9 2525.2,377.3 2543.9,377.3 2543.9,381.3 2529.2,381.3 2529.2,389.5 
				2542.4,389.5 2542.4,393.1 2529.2,393.1 2529.2,401.9 2545,401.9 2545,405.9 			"/>
		</g>
		<g id="T" transform="translate(553.000000, 5.000000)">
			<polygon id="Shape_2_" class="st0" points="2318.7,381.3 2318.7,405.9 2314.8,405.9 2314.8,381.3 2303.4,381.3 2303.4,377.3 
				2330,377.3 2330,381.3 			"/>
		</g>
		<g id="_-" transform="translate(841.000000, 121.000000)">
			<rect id="Rectangle-path" x="2050" y="275.3" class="st0" width="14.4" height="3.5"/>
		</g>
		<g id="A" transform="translate(1049.000000, 4.000000)">
			<path id="Shape_3_" class="st0" d="M1882.1,383.5l-4.8,10.6h9.6L1882.1,383.5z M1892.5,407l-4.1-9.3h-12.8l-4.3,9.3h-4.3l13-28.6
				l2-0.1l2,0.1l12.8,28.6L1892.5,407z"/>
		</g>
		<g id="_--2" transform="translate(1386.000000, 121.000000)">
			<rect id="Rectangle-path_1_" x="1570.5" y="275.3" class="st0" width="14.4" height="3.5"/>
		</g>
		<g id="P" transform="translate(1637.000000, 5.000000)">
			<path id="Shape_4_" class="st0" d="M1365.2,381.3h-12.1v8.3h12.1c2.3,0,4.5-1.3,4.5-4.1C1369.7,382.6,1367.6,381.5,1365.2,381.3
				 M1365.2,393.7h-12.1v12.1h-3.5v-28.6h15.6c5.1,0,8,3,8,8.2C1373.2,390.5,1370.2,393.7,1365.2,393.7"/>
		</g>
		<g id="O" transform="translate(1897.000000, 0.000000)">
			<path id="Shape_5_" class="st0" d="M1136.4,407.4c6.5,0,11.6-4.5,11.6-10.8c0-6.4-5.1-10.9-11.6-10.9c-6.4,0-11.6,4.5-11.6,10.9
				C1124.8,402.9,1129.9,407.4,1136.4,407.4 M1136.3,381.7c9.5,0,15.6,6.8,15.6,14.8c0,7.8-5.8,14.8-15.6,14.8
				c-9.5,0-15.4-7-15.4-14.8C1120.8,388.5,1127,381.7,1136.3,381.7"/>
		</g>
		<g id="R" transform="translate(2239.000000, 5.000000)">
			<path id="Shape_6_" class="st0" d="M835.3,381.3h-12v8.5h12c2.4-0.2,4.5-1.4,4.5-4.4C839.9,383.1,838.1,381.5,835.3,381.3
				 M837.6,393.7l7.5,12.2h-4.7l-7.4-12.1h-9.7v12.1h-3.4v-28.6h15.4c5.2,0,8.2,3.4,8.2,8.3C843.5,389.9,842,392.3,837.6,393.7"/>
		</g>
		<g id="T-2" transform="translate(2513.000000, 5.000000)">
			<polygon id="Shape_7_" class="st0" points="594.1,381.5 594.1,405.9 590,405.9 590,381.5 578.8,381.5 578.8,377.3 605.4,377.3 
				605.4,381.5 			"/>
		</g>
		<g id="E-2" transform="translate(2825.000000, 5.000000)">
			<polygon id="Shape_8_" class="st0" points="304.3,405.9 304.3,377.3 322.9,377.3 322.9,381.3 308.2,381.3 308.2,389.5 
				321.4,389.5 321.4,393.1 308.2,393.1 308.2,401.9 324,401.9 324,405.9 			"/>
		</g>
		<g id="R-2" transform="translate(3083.000000, 5.000000)">
			<path id="Shape_9_" class="st0" d="M92.6,381.3h-12v8.5h12c2.4-0.2,4.5-1.4,4.5-4.4C97.1,383.1,95.3,381.5,92.6,381.3
				 M94.9,393.7l7.5,12.2h-4.7l-7.4-12.1h-9.7v12.1h-3.5v-28.6h15.4c5.2,0,8.2,3.4,8.2,8.3C100.8,389.9,99.2,392.3,94.9,393.7"/>
		</g>
	</g>
</g>
</svg>
