<svg xmlns="http://www.w3.org/2000/svg" xml:space="preserve" id="Layer_1" x="0" y="0" version="1.1" viewBox="2790 381.7 395.4 29.7"><style>.st0{fill:#1d1d1b}</style><g id="Page-1"><g id="_x30_1.NAP_x5F_LOGO_x5F_White_x5F_and_x5F_Black"><g id="N" transform="translate(0 5)"><path id="Shape" d="M2815.1 405.9v-28.6h-4v21.8l-17-21.6-.2-.2c-.1-.1-.2-.1-.3-.1h-3.6v28.6h3.9V384l17 21.5.2.2c.1.1.2.1.3.1z" class="st0"/></g><g id="E" transform="translate(301 5)"><path id="Shape_1_" d="M2525.2 405.9v-28.6h18.7v4h-14.7v8.2h13.2v3.6h-13.2v8.8h15.8v4z" class="st0"/></g><g id="T" transform="translate(553 5)"><path id="Shape_2_" d="M2318.7 381.3v24.6h-3.9v-24.6h-11.4v-4h26.6v4z" class="st0"/></g><g id="_-" transform="translate(841 121)"><path id="Rectangle-path" d="M2050 275.3h14.4v3.5H2050z" class="st0"/></g><g id="A" transform="translate(1049 4)"><path id="Shape_3_" d="m1882.1 383.5-4.8 10.6h9.6zm10.4 23.5-4.1-9.3h-12.8l-4.3 9.3h-4.3l13-28.6 2-.1 2 .1 12.8 28.6z" class="st0"/></g><g id="_--2" transform="translate(1386 121)"><path id="Rectangle-path_1_" d="M1570.5 275.3h14.4v3.5h-14.4z" class="st0"/></g><g id="P" transform="translate(1637 5)"><path id="Shape_4_" d="M1365.2 381.3h-12.1v8.3h12.1c2.3 0 4.5-1.3 4.5-4.1 0-2.9-2.1-4-4.5-4.2m0 12.4h-12.1v12.1h-3.5v-28.6h15.6c5.1 0 8 3 8 8.2 0 5.1-3 8.3-8 8.3" class="st0"/></g><g id="O" transform="translate(1897)"><path id="Shape_5_" d="M1136.4 407.4c6.5 0 11.6-4.5 11.6-10.8 0-6.4-5.1-10.9-11.6-10.9-6.4 0-11.6 4.5-11.6 10.9 0 6.3 5.1 10.8 11.6 10.8m-.1-25.7c9.5 0 15.6 6.8 15.6 14.8 0 7.8-5.8 14.8-15.6 14.8-9.5 0-15.4-7-15.4-14.8-.1-8 6.1-14.8 15.4-14.8" class="st0"/></g><g id="R" transform="translate(2239 5)"><path id="Shape_6_" d="M835.3 381.3h-12v8.5h12c2.4-.2 4.5-1.4 4.5-4.4.1-2.3-1.7-3.9-4.5-4.1m2.3 12.4 7.5 12.2h-4.7l-7.4-12.1h-9.7v12.1h-3.4v-28.6h15.4c5.2 0 8.2 3.4 8.2 8.3 0 4.3-1.5 6.7-5.9 8.1" class="st0"/></g><g id="T-2" transform="translate(2513 5)"><path id="Shape_7_" d="M594.1 381.5v24.4H590v-24.4h-11.2v-4.2h26.6v4.2z" class="st0"/></g><g id="E-2" transform="translate(2825 5)"><path id="Shape_8_" d="M304.3 405.9v-28.6h18.6v4h-14.7v8.2h13.2v3.6h-13.2v8.8H324v4z" class="st0"/></g><g id="R-2" transform="translate(3083 5)"><path id="Shape_9_" d="M92.6 381.3h-12v8.5h12c2.4-.2 4.5-1.4 4.5-4.4 0-2.3-1.8-3.9-4.5-4.1m2.3 12.4 7.5 12.2h-4.7l-7.4-12.1h-9.7v12.1h-3.5v-28.6h15.4c5.2 0 8.2 3.4 8.2 8.3.1 4.3-1.5 6.7-5.8 8.1" class="st0"/></g></g></g></svg>